<svg width="26" height="27" viewBox="0 0 26 27" fill="none" xmlns="http://www.w3.org/2000/svg">
<g clip-path="url(#clip0_203_466)">
<path d="M19.8551 13.5C19.8551 11.6973 18.7531 10.1535 17.1891 9.50352L16.3562 11.5043C17.1383 11.8293 17.6867 12.6012 17.6867 13.5051C17.6867 14.4039 17.1383 15.1758 16.3562 15.5059L17.1891 17.5066C18.7531 16.8465 19.8551 15.3027 19.8551 13.5ZM18.8547 5.50195L18.0219 7.50273C20.373 8.48281 22.0234 10.7984 22.0234 13.5C22.0234 16.2066 20.373 18.5172 18.0219 19.4973L18.8547 21.498C21.9879 20.193 24.1867 17.1055 24.1867 13.5C24.1867 9.89453 21.9879 6.80703 18.8547 5.50195ZM2.52344 8.08164V18.9133H6.85508L14.4367 26.5V0.5L6.85508 8.08164H2.52344Z" fill="#502432"/>
</g>
<defs>
<clipPath id="clip0_203_466">
<rect width="26" height="26" fill="white" transform="translate(0 0.5)"/>
</clipPath>
</defs>
</svg>
