<svg width="18" height="21" viewBox="0 0 18 21" fill="none" xmlns="http://www.w3.org/2000/svg">
<path d="M9 21C7.75 21 6.57933 20.7627 5.488 20.288C4.396 19.8127 3.446 19.1707 2.638 18.362C1.82933 17.554 1.18733 16.604 0.712 15.512C0.237333 14.4207 0 13.25 0 12H2C2 13.95 2.67933 15.604 4.038 16.962C5.396 18.3207 7.05 19 9 19C10.95 19 12.604 18.3207 13.962 16.962C15.3207 15.604 16 13.95 16 12C16 10.05 15.3207 8.39567 13.962 7.037C12.604 5.679 10.95 5 9 5H8.85L10.4 6.55L9 8L5 4L9 0L10.4 1.45L8.85 3H9C10.25 3 11.421 3.23767 12.513 3.713C13.6043 4.18767 14.5543 4.829 15.363 5.637C16.171 6.44567 16.8127 7.39567 17.288 8.487C17.7627 9.579 18 10.75 18 12C18 13.25 17.7627 14.4207 17.288 15.512C16.8127 16.604 16.171 17.554 15.363 18.362C14.5543 19.1707 13.6043 19.8127 12.513 20.288C11.421 20.7627 10.25 21 9 21Z" fill="black"/>
</svg>
